<?xml version="1.0" standalone="no"?>
<!DOCTYPE svg PUBLIC "-//W3C//DTD SVG 20010904//EN"
 "http://www.w3.org/TR/2001/REC-SVG-20010904/DTD/svg10.dtd">
<svg version="1.0" xmlns="http://www.w3.org/2000/svg"
 width="151.000000pt" height="151.000000pt" viewBox="0 0 151.000000 151.000000"
 preserveAspectRatio="xMidYMid meet">
<metadata>
Created by potrace 1.14, written by Peter Selinger 2001-2017
</metadata>
<g transform="translate(0.000000,151.000000) scale(0.100000,-0.100000)"
fill="#000000" stroke="none">
<path d="M361 1161 c-120 -184 -144 -226 -148 -261 -4 -26 0 -41 12 -54 21
-21 150 -106 185 -122 8 -4 23 -14 33 -22 9 -8 17 -12 17 -8 0 4 10 -2 22 -14
12 -11 28 -20 35 -20 7 0 13 -4 13 -9 0 -5 14 -14 30 -21 17 -7 30 -16 30 -21
0 -5 7 -9 15 -9 8 0 15 -3 15 -8 0 -9 65 -45 88 -49 9 -1 25 -12 34 -23 10
-12 26 -23 35 -25 10 -2 20 -4 22 -4 2 -1 -13 -17 -33 -37 -20 -20 -40 -33
-43 -30 -3 3 -6 20 -5 38 2 42 -7 70 -18 63 -9 -5 -11 -143 -3 -157 4 -8 25 8
94 75 55 52 64 56 56 27 -7 -28 18 -26 49 5 21 21 29 23 45 14 12 -6 32 -8 45
-5 23 6 24 4 24 -39 0 -25 -3 -46 -7 -46 -43 -7 -86 -3 -90 8 -8 19 3 27 39
27 17 1 33 6 35 12 6 17 -48 24 -76 11 -25 -12 -37 -52 -23 -73 10 -15 62 -27
62 -14 0 6 9 6 25 0 38 -15 63 15 63 76 0 46 -18 91 -31 77 -4 -3 -7 1 -7 10
0 14 7 16 34 11 28 -4 37 -1 50 18 14 20 21 18 17 -5 -1 -5 3 -6 8 -2 11 6 10
65 -1 65 -17 0 -92 90 -110 130 -44 105 -82 179 -90 174 -8 -5 -12 31 -9 68 1
10 -12 23 -33 33 -24 11 -41 30 -53 56 -26 60 -82 72 -128 28 -25 -23 -38 -28
-69 -26 -52 5 -112 55 -126 106 -10 38 -31 63 -54 67 -7 1 -40 -42 -75 -95z"/>
<path d="M1130 591 c0 -5 5 -13 10 -16 6 -3 10 -2 10 4 0 5 -4 13 -10 16 -5 3
-10 2 -10 -4z"/>
<path d="M1226 593 c-10 -10 -7 -33 5 -33 5 0 7 5 3 11 -4 8 1 9 17 4 13 -4
26 -8 29 -9 3 0 6 4 8 9 1 6 -6 10 -15 10 -10 0 -23 3 -29 7 -6 4 -14 5 -18 1z"/>
<path d="M1197 583 c-10 -9 -9 -23 1 -23 5 0 9 7 9 15 0 17 -1 18 -10 8z"/>
<path d="M1142 531 c-7 -4 -23 -7 -35 -6 -12 1 -27 -6 -34 -15 -15 -21 -15
-104 1 -126 18 -23 86 -27 86 -4 0 12 -9 16 -32 16 -33 -1 -33 -1 -33 49 l0
50 45 0 c33 0 46 -4 48 -16 2 -12 -5 -16 -29 -17 -39 -1 -61 -19 -33 -28 39
-13 44 -13 49 -3 4 5 10 7 15 4 11 -7 30 27 30 54 0 11 -9 25 -20 31 -11 6
-20 8 -20 4 0 -3 -6 -2 -13 4 -7 6 -18 7 -25 3z"/>
<path d="M1291 526 c-40 -14 -49 -34 -46 -99 2 -36 -1 -47 -11 -43 -7 3 -14
-2 -16 -11 -3 -15 -4 -15 -20 0 -20 21 -28 21 -28 2 0 -19 32 -36 50 -25 7 4
19 6 25 4 7 -3 16 3 19 13 7 16 9 16 19 2 20 -26 53 -29 77 -7 11 10 17 24 14
30 -5 7 -14 3 -27 -13 -10 -13 -21 -23 -23 -21 -37 24 -51 47 -50 80 2 54 12
63 57 59 21 -2 39 0 39 5 0 5 5 6 10 3 6 -3 10 1 10 10 0 11 -7 16 -22 14 -13
-2 -27 -1 -33 2 -5 4 -25 1 -44 -5z"/>
<path d="M166 511 c-39 -43 0 -86 76 -83 22 1 35 -18 19 -27 -7 -4 -39 -7 -72
-6 -33 1 -62 -2 -65 -7 -3 -4 -9 -6 -14 -3 -5 3 -11 2 -14 -3 -6 -10 -2 -11
93 -15 63 -2 77 0 93 17 19 20 16 54 -6 68 -6 4 -30 8 -54 8 -36 0 -43 3 -40
18 3 13 15 17 56 19 88 2 86 24 -2 29 -41 2 -58 -2 -70 -15z"/>
<path d="M530 513 c-16 -11 -20 -25 -20 -67 0 -66 13 -78 83 -80 65 -3 81 2
67 19 -6 7 -30 11 -57 10 -60 -3 -70 5 -67 50 4 41 12 58 24 50 5 -3 11 -1 14
4 10 15 61 -4 64 -23 3 -11 0 -16 -7 -12 -6 4 -11 2 -11 -4 0 -8 -6 -8 -20 0
-14 8 -20 8 -20 0 0 -6 -5 -8 -11 -4 -7 4 -10 1 -7 -7 7 -21 74 -20 93 1 20
22 10 69 -14 71 -68 6 -93 4 -111 -8z"/>
<path d="M346 501 c-10 -11 -20 -33 -22 -49 -9 -53 66 -111 103 -81 7 7 13 9
13 5 0 -16 40 36 44 58 5 28 -27 86 -49 86 -21 0 -19 -16 6 -38 35 -33 4 -95
-43 -88 -47 6 -63 59 -28 91 11 10 20 22 20 27 0 15 -27 8 -44 -11z"/>
<path d="M797 423 c-3 -3 1 -16 10 -29 16 -25 43 -33 43 -11 -1 14 -45 49 -53
40z"/>
<path d="M380 299 c0 -11 4 -18 10 -14 5 3 7 12 3 20 -7 21 -13 19 -13 -6z"/>
<path d="M855 310 c-4 -6 -10 -8 -14 -6 -4 3 -8 -1 -8 -8 0 -17 23 -10 31 10
6 16 0 19 -9 4z"/>
<path d="M540 300 c0 -5 5 -10 11 -10 5 0 7 5 4 10 -3 6 -8 10 -11 10 -2 0 -4
-4 -4 -10z"/>
<path d="M657 295 c-4 -8 -2 -17 3 -20 6 -4 10 3 10 14 0 25 -6 27 -13 6z"/>
<path d="M1001 292 c-1 -25 20 -26 27 -1 3 12 2 12 -6 0 -8 -11 -11 -10 -15 5
-4 16 -5 15 -6 -4z"/>
<path d="M435 289 c-4 -6 -4 -13 -1 -16 3 -4 6 -1 6 6 0 7 5 9 10 6 6 -3 10
-1 10 4 0 14 -17 14 -25 0z"/>
<path d="M491 284 c0 -11 3 -14 6 -6 3 7 2 16 -1 19 -3 4 -6 -2 -5 -13z"/>
<path d="M586 289 c5 -9 31 -6 40 4 4 4 -4 6 -19 5 -14 -1 -24 -5 -21 -9z"/>
<path d="M705 290 c-3 -5 1 -10 9 -10 9 0 16 5 16 10 0 6 -4 10 -9 10 -6 0
-13 -4 -16 -10z"/>
<path d="M890 290 c0 -5 7 -10 16 -10 8 0 12 5 9 10 -3 6 -10 10 -16 10 -5 0
-9 -4 -9 -10z"/>
<path d="M945 290 c-3 -5 1 -10 9 -10 9 0 16 5 16 10 0 6 -4 10 -9 10 -6 0
-13 -4 -16 -10z"/>
<path d="M1055 290 c-3 -5 1 -10 9 -10 9 0 16 5 16 10 0 6 -4 10 -9 10 -6 0
-13 -4 -16 -10z"/>
</g>
</svg>
