<?xml version="1.0" standalone="no"?>
<!DOCTYPE svg PUBLIC "-//W3C//DTD SVG 20010904//EN"
 "http://www.w3.org/TR/2001/REC-SVG-20010904/DTD/svg10.dtd">
<svg version="1.0" xmlns="http://www.w3.org/2000/svg"
 width="1350.000000pt" height="1350.000000pt" viewBox="0 0 1350.000000 1350.000000"
 preserveAspectRatio="xMidYMid meet">
<metadata>
Created by potrace 1.14, written by Peter Selinger 2001-2017
</metadata>
<g transform="translate(0.000000,1350.000000) scale(0.100000,-0.100000)"
fill="#000000" stroke="none">
<path d="M6428 13345 c-2 -2 -56 -6 -121 -10 -65 -3 -125 -8 -135 -9 -9 -2
-55 -7 -102 -11 -47 -4 -96 -8 -110 -10 -59 -7 -197 -26 -219 -30 -13 -2 -45
-7 -70 -11 -25 -4 -55 -8 -66 -10 -11 -2 -45 -8 -75 -14 -30 -6 -68 -13 -85
-16 -131 -23 -435 -100 -635 -161 -160 -49 -384 -125 -445 -152 -11 -5 -90
-37 -175 -72 -194 -79 -568 -265 -760 -377 -118 -69 -386 -242 -510 -329 -104
-73 -354 -267 -436 -339 -12 -11 -46 -39 -75 -64 -188 -159 -476 -450 -668
-676 -52 -60 -103 -120 -115 -134 -12 -14 -44 -54 -71 -90 -28 -36 -52 -67
-55 -70 -29 -28 -195 -268 -346 -500 -31 -48 -134 -220 -134 -224 0 -2 -23
-43 -51 -92 -181 -314 -391 -804 -518 -1209 -64 -206 -160 -592 -187 -755 -12
-70 -14 -87 -18 -106 -10 -51 -34 -209 -41 -274 -3 -30 -8 -66 -10 -80 -3 -22
-10 -91 -20 -205 -25 -289 -25 -833 1 -1095 5 -53 23 -228 30 -285 2 -22 6
-51 9 -65 3 -14 7 -45 11 -70 6 -52 8 -62 23 -150 11 -67 17 -97 26 -140 3
-14 7 -34 9 -45 21 -108 66 -299 95 -405 50 -183 63 -224 111 -370 253 -763
666 -1503 1189 -2130 57 -69 111 -132 120 -141 9 -9 54 -58 101 -110 238 -259
497 -498 798 -732 134 -104 416 -307 427 -307 3 0 28 -16 55 -35 27 -19 52
-35 54 -35 3 0 26 -14 52 -32 159 -107 608 -340 854 -443 74 -31 149 -62 165
-70 78 -34 376 -136 595 -203 115 -35 312 -84 475 -118 124 -25 318 -61 380
-69 99 -13 276 -34 340 -40 39 -4 84 -9 100 -10 231 -24 824 -24 1065 -1 19 2
76 7 125 11 50 4 92 9 95 10 3 2 34 6 70 10 36 3 72 8 80 10 8 2 39 7 69 10
30 4 63 9 75 11 11 2 38 6 61 9 22 3 47 8 55 10 8 2 29 7 45 9 28 5 97 18 155
31 148 30 342 79 515 130 183 53 485 159 547 191 15 8 29 14 30 13 24 -8 504
218 727 343 326 181 700 431 931 623 25 20 65 53 90 73 197 162 516 467 685
657 530 594 918 1213 1218 1945 81 198 222 617 242 719 2 11 6 25 9 29 3 5 7
19 10 33 3 13 28 121 55 239 27 118 51 233 54 255 4 22 9 51 12 65 2 14 7 43
10 65 11 92 16 121 20 135 2 8 7 44 10 80 4 36 9 73 11 84 2 10 6 53 9 95 4
42 8 87 10 101 26 171 26 969 0 1140 -2 14 -7 54 -10 90 -3 36 -8 81 -10 100
-3 19 -7 55 -10 80 -3 25 -7 56 -10 70 -2 14 -7 45 -10 70 -4 25 -12 81 -20
125 -41 236 -83 426 -137 615 -16 58 -31 110 -32 115 -40 157 -158 489 -253
715 -113 268 -280 595 -438 855 -96 160 -381 575 -415 605 -3 3 -21 25 -40 50
-43 57 -239 289 -299 355 -84 91 -395 400 -482 478 -79 71 -342 288 -400 330
-13 10 -67 49 -119 88 -200 149 -508 343 -745 470 -141 76 -449 227 -475 234
-3 1 -23 9 -45 19 -154 69 -438 172 -715 261 -109 34 -399 107 -565 140 -161
33 -151 31 -205 40 -25 4 -52 9 -61 10 -9 2 -40 6 -69 10 -29 4 -62 9 -74 11
-12 2 -40 6 -62 9 -23 2 -61 7 -85 9 -78 10 -216 23 -339 32 -82 6 -726 14
-732 9z"/>
</g>
</svg>
